<?xml version="1.0"?><svg width="1266" height="789" xmlns="http://www.w3.org/2000/svg">
 <title>jdfsh</title>
 <g>
  <title>Layer 1</title>
  <path d="m0.99999,139l0,-139l632.50001,0l632.5,0l0,103.371841l0,103.371841l-0.999268,0.200729l-0.999146,0.301086l-0.199829,0.301086l-0.299805,0.200714l-0.299805,0.200714l-0.199829,0.301086l-0.999146,0.501801l-0.999268,0.501816l-0.199707,0.301086l-0.299805,0.200714l-0.499634,2.509033q-0.499634,2.509018 -0.999268,3.010818q-0.499512,0.501816 0.199829,1.003616q0.799438,0.501801 0.599609,4.014435q-0.299805,3.512634 -3.996826,4.315536q-3.796997,0.702515 -22.781982,0.702515q-18.985107,0 -22.4823,1.003616q-3.497192,1.003586 -19.984131,1.003586q-16.487061,0 -47.462524,2.007248q-30.975586,2.007202 -47.16272,2.308304q-16.287109,0.200714 -16.986572,-7.828171l-0.799438,-8.02887l-1.998413,0.200714q-1.998413,0.301086 -10.991211,0.802887q-8.99292,0.501816 -10.191895,8.831772l-1.299072,8.229599l-0.299805,0.200729l-0.199829,0.301086l-0.999146,0.501801l-0.999268,0.501801l-3.996826,0.301086l-3.996826,0.200714l-0.199829,-3.51265q-0.299805,-3.512619 -0.599609,-6.021637l-0.199829,-2.509033l-3.497192,0.200729l-3.497192,0.301071l-0.999268,0.501816l-0.999146,0.501801l-0.199829,1.304703q-0.299805,1.20433 -0.299805,2.709747l0,1.505417l-0.499634,1.003586l-0.499634,1.003632l-0.499512,-2.509033q-0.499634,-2.509018 -0.799438,-2.709747q-0.199829,-0.301102 -1.398804,2.007233l-1.299072,2.207932l-0.299805,-2.007217q-0.199829,-2.007217 -3.697021,-2.007217q-3.497192,0 -3.697083,-7.527084l-0.299744,-7.527069l-0.299744,-0.200714l-0.199829,-0.301086l-0.19989,-0.301086l-0.299744,-0.200729l-0.499634,5.519867q-0.499573,5.519852 -0.799316,7.025269q-0.19989,1.505417 -11.191162,1.505417q-10.991333,0 -11.79071,-6.021667l-0.699402,-6.021667l-0.299805,-0.200714l-0.199829,-0.301086l-1.49884,-0.501801l-1.498779,-0.501801l-0.999207,-0.501816l-0.999207,-0.501801l-0.19989,-0.301086l-0.299744,-0.200714l-0.999207,8.02887q-0.999207,8.028885 -0.299744,8.530685q0.799377,0.501816 0.799377,5.519867l0,5.018051l-1.998413,0.200714l-1.998474,0.301086l-3.497192,0l-3.497253,0l-0.199829,-0.301086l-0.299805,-0.200714l-0.299744,-1.003616q-0.199829,-1.003601 -3.197449,-1.003601q-2.99762,0 -2.99762,-11.541519q0,-11.541519 1.498779,-11.742233q1.49884,-0.301086 0.499634,-0.802902q-0.999207,-0.501801 -1.49884,-5.218765q-0.499573,-4.817337 0.499634,-5.018051q0.999207,-0.301086 0,-0.802887q-0.999207,-0.501816 -1.798584,-3.813721l-0.699463,-3.211548l-0.299744,0.200714l-0.19989,0.301086l-0.199829,0.301086l-0.299744,0.200714l-0.299744,-1.505417l-0.19989,-1.505417l-1.498779,0.200729l-1.49884,0.301086l-0.199829,0.301086l-0.299744,0.200714l-0.499634,1.505417l-0.499573,1.505417l-0.499634,10.537903q-0.499573,10.537903 -0.199829,21.577621l0.199829,11.039703l-4.49646,0.200729q-4.496399,0.301086 -30.975464,0.802887q-26.479126,0.501801 -56.455383,-1.003616q-29.976318,-1.505417 -36.471191,-1.505417q-6.494873,0 -22.981812,0.70253q-16.487,0.802887 -16.986572,-0.401443q-0.499634,-1.304688 -5.695496,-1.003601q-5.295837,0.200714 -8.793091,0.200714q-3.497192,0 -5.195862,0q-1.798584,0 -1.998413,-1.505417q-0.299805,-1.505417 -0.799377,-0.501801q-0.499634,1.003616 -1.798584,1.20433q-1.199036,0.301086 -2.198242,-0.200714l-0.999207,-0.501816l0.199829,-0.301086l0.299744,-0.200714l0,-3.010834l0,-3.010834l-0.299744,-2.007217l-0.199829,-2.007217l-0.999207,0.200714l-0.999207,0.301086l-0.19989,0.301086l-0.299744,0.200729l-0.299744,0.200714l-0.19989,0.301086l0.19989,0.301086l0.299744,0.200714l0.499634,1.003616q0.499573,1.003601 0.799316,2.007217l0.19989,1.003616l-0.999207,0l-0.999268,0l0,-1.003616l0,-1.003616l-1.998413,0q-1.998413,0 -1.998413,-1.505432l0,-1.505386l-0.999207,-0.200729l-0.999207,-0.301086l-0.999207,-0.301086l-0.999207,-0.200714l0.199829,1.505417l0.299805,1.505417l0,3.512619q0,3.51265 -0.299805,4.516266l-0.199829,1.003601l-3.497253,0q-3.497192,0 -3.996826,-0.802887q-0.499573,-0.70253 -4.996033,0q-4.49646,0.802887 -4.296631,3.31192q0.299805,2.509018 -1.998413,2.308304q-2.198242,-0.301086 -4.196655,0.200714q-1.998413,0.501801 -6.494873,0.802872q-4.49646,0.200745 -4.696289,-0.802872q-0.299866,-1.003616 -0.799377,-0.501801q-0.499634,0.501801 -34.772522,3.010834q-34.172974,2.509018 -34.172974,1.505402q0,-1.003601 -2.99762,-1.505402q-2.99762,-0.501831 -2.797791,-2.007233q0.299744,-1.505417 -0.999207,-1.706131q-1.199097,-0.301086 -2.697876,2.408661l-1.49884,2.810104l-0.999207,0l-0.999207,0l0.19989,-1.505402q0.299744,-1.505417 0.299744,-3.51265q0,-2.007217 -3.697083,-2.509018q-3.796997,-0.501801 -3.796997,-1.505432q0,-1.003601 -0.999207,-1.003601q-0.999207,0 -0.999207,-1.003601q0,-1.003616 -0.999268,-1.20433q-0.999268,-0.301086 -4.49646,-0.301086q-3.497192,0 -5.995239,0q-2.497986,0 -3.996826,-2.709763q-1.498779,-2.810089 -0.499634,-2.810089q0.999268,0 0.799377,-1.003616q-0.299805,-1.003601 -5.995239,-1.806503q-5.79541,-0.702515 -6.294983,-3.713348l-0.499695,-3.010834l-0.999146,-0.501801l-0.999207,-0.501801l-0.19989,-0.301086l-0.299805,-0.200729l-0.299744,0.200729l-0.199829,0.301086l-0.19989,0.301086q-0.299683,0.200714 -1.598633,2.408646q-1.199097,2.308319 -4.696289,0.802902q-3.497253,-1.505432 -8.99292,-2.207962q-5.495667,-0.802872 -4.996094,-3.31192q0.499695,-2.509003 -4.496399,-2.308289q-4.996094,0.301086 -5.495667,2.007217q-0.499573,1.806503 -3.996887,1.806503l-3.497192,0l0.199829,-1.505432q0.299744,-1.505402 1.998413,-2.007202q1.798645,-0.501801 1.798645,-1.505417q0,-1.003601 -1.998474,-1.20433q-1.998413,-0.301086 -3.996826,-2.810104l-1.998474,-2.509033l-2.497925,-0.501801q-2.498108,-0.501801 -4.49646,-0.501801q-1.998474,0 -6.994507,3.31192q-4.996033,3.211548 -4.49646,1.204315q0.499573,-2.007217 -0.499573,-1.806488l-0.999268,0.301071l-1.498779,0.501801l-1.49884,0.501816l-1.998352,0.301086l-1.998413,0.200714l0,-1.505417l0,-1.505402l2.497925,0.200714q2.498108,0.301086 3.497253,-0.200714l0.999207,-0.501816l0.19989,-0.301102l0.299805,-0.200699l0,-0.501801l0,-0.501801l-0.499695,-1.003632l-0.499512,-1.003601l-0.299805,-1.003601l-0.19989,-1.003616l-0.999146,-0.200714l-0.999268,-0.301086l-0.999207,-0.501801q-0.999146,-0.501816 -3.996765,-1.003616q-2.997681,-0.501801 -8.99292,-3.010834q-5.9953,-2.509018 -11.99054,-3.010849q-5.99527,-0.501801 -7.793823,0.802917l-1.698669,1.20433l-0.299744,0.200714l-0.19986,0.301086l-0.19986,0.301071l-0.299744,0.200729l-0.299774,0.200729l-0.199829,0.301071l-0.19986,0.301071l-0.299744,0.200729l-0.299774,1.003601l-0.199829,1.003632l1.199036,0.501801q1.298981,0.501816 0.999237,2.709747q-0.19986,2.308289 -1.199066,2.60939q-0.999207,0.200729 -0.999207,1.706131q0,1.505402 1.49881,1.505402q1.49881,0 1.698669,1.505417l0.299744,1.505432l0.299744,0.200699l0.19986,0.301102l0.999207,0.301071l0.999207,0.200729l0,1.003601l0,1.003616l-11.490906,0.200714q-11.490906,0.301086 -22.482239,0.301086l-10.991302,0l-3.497223,-0.501801l-3.497253,-0.501801l-0.19986,-0.301086l-0.299744,-0.200729l-0.499603,-2.007202q-0.499603,-2.007233 -0.799347,-2.207947q-0.19986,-0.301086 -0.699463,1.003616q-0.499603,1.20433 -2.99765,1.20433q-2.498016,0 -2.99762,1.20433q-0.499603,1.304688 -4.996033,1.806488q-4.49646,0.501801 -5.695526,-1.20433q-1.29895,-1.806488 -2.99762,-2.007217q-1.798584,-0.301071 -1.798584,1.706131q0,2.007217 -15.487732,2.308319q-15.487762,0.200699 -15.687622,1.204315q-0.299744,1.003616 -2.597931,1.20433q-2.198273,0.301086 -10.691559,0.602173q-8.493286,0.200714 -8.493286,-1.304703q0,-1.505417 -2.498016,-1.505417q-2.498016,0 -3.297394,-3.010818q-0.699463,-3.010834 -2.99762,-3.512634q-2.198273,-0.501816 -2.198273,-1.505417q0,-1.003616 -4.49646,-1.003616q-4.496429,0 -4.496429,1.003616q0,1.003601 -0.999207,0.802887q-0.999207,-0.301086 -0.499603,-0.802887q0.499603,-0.501816 -15.987366,-1.003616q-16.486969,-0.501801 -22.981842,-1.003601q-6.494873,-0.501816 -10.491699,1.505417q-3.996857,2.007217 -5.195923,4.315521q-1.29895,2.207932 -3.996826,6.423096q-2.797791,4.315521 -2.298187,9.032486q0.499634,4.817337 -5.995239,6.021667l-6.494873,1.304688l-0.19986,0.301086l-0.299744,0.200729l-0.299744,1.003601l-0.19986,1.003616l-1.998413,-0.200714l-1.998444,-0.301086l0.19986,-0.301086l0.299744,-0.200714l0.299774,-0.200729l0.19986,-0.301071l0.199829,-0.301102l0.299774,-0.200699l0,-0.501831l0,-0.501801l-0.299774,-0.200714l-0.199829,-0.301086l-0.19986,-0.301086l-0.299774,-0.200699l-0.299744,-0.200745q-0.19986,-0.301086 1.798584,-1.003586q1.998413,-0.802902 1.199066,-4.315552l-0.699463,-3.512619l-0.499603,-1.505432l-0.499603,-1.505417l-0.299774,-0.200714l-0.199829,-0.301071l-2.99765,0l-2.99762,0l-0.999207,0.501801q-0.999207,0.501801 -3.996857,1.505402q-2.99762,1.003632 -4.796204,3.713379q-1.698654,2.810104 -3.996857,3.612991q-2.198257,0.70253 -4.3965,4.415878q-2.298187,3.813721 -5.99527,4.616623q-3.796997,0.702499 -4.59639,2.007217q-0.699417,1.20433 -3.996811,3.010834l-3.197479,1.706116l1.49881,0.301102q1.49881,0.200699 1.49881,1.20433q0,1.003601 0.999222,1.003601l0.999207,0l0,1.003601l0,1.003616l-2.498016,0.200714l-2.498032,0.301086l-0.999207,0.501801l-0.999222,0.501831l-1.998413,0l-1.998428,0l0.199829,-0.301102q0.299789,-0.200729 1.998444,-1.003616q1.798569,-0.70253 0.599518,-2.007202l-1.298981,-1.20433l-0.299759,0.200699l-0.199829,0.301102l-1.49881,0.501801q-1.49884,0.501801 -6.494873,0.501801l-4.996048,0l-1.49881,0l-1.49884,0l-0.199829,0.301086l-0.299759,0.200714l-0.299759,0.200729l-0.199844,0.301071l2.498032,0.501816q2.498001,0.501801 3.497223,1.003601l0.999207,0.501831l-0.199829,0.301071l-0.299759,0.200729l-0.299774,2.007202l-0.199844,2.007217l-0.999207,0.200729l-0.999207,0.301102l-1.998413,0.501801q-1.998428,0.501801 -11.990524,1.003586l-9.992111,0.501831l-0.199829,-0.301086l-0.299774,-0.200745l-0.299759,-0.200699q-0.19986,-0.301086 1.29895,-0.602188q1.49884,-0.200699 0.999222,-2.408661l-0.499588,-2.308289l-0.999222,-0.501801l-0.999222,-0.501801l-0.999191,-0.501831q-0.999207,-0.501801 -1.798599,-0.200699q-0.699448,0.200699 -3.397308,1.20433q-2.797791,1.003601 -2.99762,0q-0.299759,-1.003632 -6.994461,-3.813736q-6.794632,-2.709747 -11.291092,-1.706131q-4.496429,1.003601 -7.29422,4.716965q-2.697876,3.813721 -4.996078,4.315521q-2.198242,0.501801 -2.398071,-0.501801q-0.299789,-1.003616 -3.996857,-1.20433q-3.797012,-0.301086 -8.992874,2.408661q-5.29583,2.81012 -5.595589,4.616608q-0.199844,1.706146 -5.1959,1.706146q-4.99604,0 -6.195091,-0.702545q-1.298981,-0.802856 -1.798584,1.204346q-0.499611,2.007233 -7.793846,2.810089l-7.194313,0.702545l-1.998405,0l-1.998421,0l-0.999222,0l-0.999214,0l-0.199837,-0.301056l-0.299767,-0.200745l-0.299767,-0.200745l-0.199837,-0.301056l0.199837,-0.301117l0.299767,-0.200684l0.299767,-2.007233q0.199837,-2.007202 1.199051,-2.007202q0.999222,0 1.199051,-2.509033q0.299767,-2.509048 -1.998421,-3.713379l-2.198257,-1.304688l-1.49881,-0.501816l-1.498825,-0.501801l-0.199837,-0.301086l-0.299759,-0.200714l-0.299774,-0.200714l-0.199837,-0.301086l-0.999214,-0.501816l-0.999207,-0.501801l-0.999214,0l-0.999207,0l-0.199844,0.301086l-0.299759,0.200714l-0.299767,0.200729l-0.199844,0.301086l-0.199837,0.301086l-0.299767,0.200714l-0.299774,0.200714l-0.199829,0.301086l-0.199837,0.301086l-0.299774,0.200714l-0.299759,0.200729l-0.199837,0.301086l-0.199844,0.301086l-0.299767,0.200714l0.499611,3.010834q0.499596,3.010803 0.999207,5.519836q0.499603,2.509064 0.499603,3.512665l0,1.003601l0,1.003601l0,1.003601l-0.499603,1.003601l-0.499611,1.003632l-0.299759,0.200745l-0.199837,0.301056l-0.199844,0.301056l-0.299767,0.200745l-0.299774,0.200775l-0.199837,0.301025l-2.498024,0l-2.498016,0l-0.199852,-0.301025l-0.299759,-0.200775l-0.299759,-0.200745l-0.199852,-0.301056l-0.199829,-0.301056l-0.299774,-0.200745l-0.299767,-2.509033q-0.199837,-2.509003 1.798584,-2.709778l1.998428,-0.301025l-0.999222,-0.501831l-0.999199,-0.501801l-0.999222,0l-0.999207,0l-6.794632,3.713348q-6.694702,3.813721 -9.39257,5.620209q-2.797791,1.706177 -6.794632,1.204376q-3.996838,-0.501801 -8.49329,-0.501801q-4.496437,0 -6.994469,1.304626q-2.49802,1.204346 -2.49802,2.207977q0,1.003601 -5.99526,0.802887q-5.99526,-0.301086 -6.99448,-1.304718q-0.999208,-1.003601 -7.494069,-0.301056q-6.49487,0.802887 -6.49487,1.806488l0,1.003601l-1.49881,0l-1.49882,0l0,-138.999985l0.00005,0.000015zm452.642191,58.711197l0.999207,-0.501801l0.19986,-0.301086l0.299744,-0.200729l0.299744,0.200729l0.19986,0.301086l0.19986,0.301086l0.299744,0.200714l0,1.505417l0,1.505417l-0.499603,3.010834q-0.499603,3.010818 -4.796204,2.509018q-4.196686,-0.501801 -3.996826,-1.505417q0.299744,-1.003601 -1.199066,-3.010834l-1.49881,-2.007217l-0.299774,-1.003601l-0.199829,-1.003616l2.498016,0.200714l2.498016,0.301086l0.19986,0.301086l0.299744,0.200729l0.299744,-0.200729l0.19986,-0.301086l0.999207,0l0.999207,0l0.19986,0.301086l0.299774,0.200729l0.299744,-0.200729l0.19986,-0.301086l0.999207,-0.501801z" stroke-width="0.5px" stroke="#FFFFFF" fill-rule="evenodd" fill="#FFFFFF" id="svg_2"/>
  <path d="m1049,483.799988l-9,0.200012l-0.199951,-2q-0.300049,-2 -1.800049,-58.5q-1.5,-56.5 -0.800049,-61.5l0.800049,-5l34.5,0.200012q34.5,0.299988 42.5,5.299988q8,5 12.199951,7.700012q4.300049,2.799988 5.300049,23.799988q1,21 0.5,46q-0.5,25 -13.199951,33.200012q-12.800049,8.299988 -37.300049,9.299988q-24.5,1 -33.5,1.299988zm32.5,-101.799988q10.5,-0.5 14.300049,2.200012q3.699951,2.799988 4.199951,35.799988q0.5,33 -2.800049,34.799988q-3.199951,1.700012 -14.199951,2.200012q-11,0.5 -12,-24.200012q-1,-24.799988 0,-25q1,-0.299988 0,-0.599976q-1,-0.200012 -0.5,-12.400024q0.5,-12.299988 11,-12.799988z" stroke-width="0.5px" stroke="#FEFEFE" fill-rule="evenodd" fill="#000000" id="svg_3"/>
  <path d="m814,362q0,-1 19.5,-0.200012q19.5,0.700012 28.700012,6.400024q9.299988,5.799988 13.299988,8.799988q4,3 4.299988,47.799988q0.200012,44.700012 -12.799988,53.200012q-13,8.5 -33,8q-20,-0.5 -33,-8.200012q-13,-7.799988 -13.799988,-52.799988q-0.700012,-45 5.799988,-49.5q6.5,-4.5 7,-6q0.5,-1.5 1.200012,-0.700012q0.799988,0.700012 6.799988,-2.599976q6,-3.200012 6,-4.200012zm18,25q8,-0.5 11.799988,1.799988q3.700012,2.200012 4.200012,34.700012q0.5,32.5 -2.799988,34.700012q-3.200012,2.299988 -10.700012,2.299988q-7.5,0 -11,-2q-3.5,-2 -4.700012,-29.299988q-1.299988,-27.200012 -1,-32.700012q0.200012,-5.5 3.200012,-7.299988q3,-1.700012 11,-2.200012z" stroke-width="0.5px" stroke="#FEFEFE" fill-rule="evenodd" fill="#000000" id="svg_4"/>
  <path d="m302.5,351q12.5,-0.5 22,0.799988q9.5,1.200012 9.5,2.200012q0,1 3.5,2q3.5,1 3.700012,2q0.299988,1 8,5.200012q7.799988,4.299988 8.299988,50q0.5,45.799988 -12.5,54q-13,8.299988 -32.5,9.299988q-19.5,1 -23.700012,-1.299988q-4.299988,-2.200012 -13.599976,-8q-9.200012,-5.700012 -10.400024,-7.400024q-1.299988,-1.799988 -1.299988,-13.299988q0,-11.5 -0.5,-19q-0.5,-7.5 -0.799988,-32.5q-0.200012,-25 13.799988,-34.200012q14,-9.299988 26.5,-9.799988zm-3,27.5q3.5,-2 11.5,-1.5q8,0.5 10.799988,2.200012q2.700012,1.799988 3.400024,34.799988q0.799988,33 -3.700012,35.200012q-4.5,2.299988 -11.5,1.799988q-7,-0.5 -10.200012,-2.200012q-3.299988,-1.799988 -3.599976,-35q-0.200012,-33.299988 3.299988,-35.299988z" stroke-width="0.5px" stroke="#FEFEFE" fill-rule="evenodd" fill="#000000" id="svg_5"/>
  <path d="m725.200012,379.799988l7.299988,19.200012l0,1l0,1l0.299988,2l0.200012,2l1,0l1,0l0.200012,-1.5l0.299988,-1.5l0.5,-2l0.5,-2l3.299988,-19q3.200012,-19 15.200012,-19l12,0l-10.799988,62.5q-10.700012,62.5 -18.400024,62.700012q-7.799988,0.299988 -10.799988,-0.200012l-3,-0.5l2,-0.5q2,-0.5 -4.200012,-17.799988l-6.299988,-17.200012l-0.5,-1l-0.5,-1l-0.5,-1l-0.5,-1l-0.5,-1.5l-0.5,-1.5l-0.299988,0.200012l-0.200012,0.299988l-0.200012,0.299988l-0.299988,0.200012l-0.5,1l-0.5,1l-0.5,2l-0.5,2l-0.5,1q-0.5,1 -6,17.5q-5.5,16.5 -12.799988,17l-7.200012,0.5l-0.200012,-1.5q-0.299988,-1.5 -2,-3.299988q-1.799988,-1.700012 -4.599976,-9.400024q-2.700012,-7.799988 -3.200012,-15.299988q-0.5,-7.5 -5,-31q-4.5,-23.5 -7.5,-38.5q-3,-15 -3.299988,-20.5q-0.200012,-5.5 14.799988,-5.5q15,0 18.5,21q3.5,21 4.5,21q1,0 4,-21q3,-21 11,-20.799988q8,0.299988 15.200012,19.599976z" stroke-width="0.5px" stroke="#FEFEFE" fill-rule="evenodd" fill="#000000" id="svg_6"/>
  <path d="m239,444l0,41l-15.5,0l-15.5,0l-0.199997,-4q-0.300003,-4 -0.800003,-17q-0.5,-13 -0.5,-20.5l0,-7.5l-0.300003,-0.200012l-0.199997,-0.299988l-10.5,0q-10.5,0 -15.5,0.299988l-5,0.200012l0,14.5q0,14.5 3.5,14.5l3.5,0l-0.199997,1l-0.300003,1l-0.300003,0.200012l-0.199997,0.299988l-3,0.5q-3,0.5 -1,0.799988q2,0.200012 2,1.200012q0,1 -2,1q-2,0 -2.199997,7l-0.300003,7l-0.300003,0.200012l-0.199997,0.299988l-4.5,0q-4.5,0 -5.5,-2.299988q-1,-2.200012 -2,-2.200012q-1,0 -1.800003,-1.5q-0.699997,-1.5 -8,-3.299988q-7.199997,-1.700012 -8,-3q-0.699997,-1.200012 -0.699997,-35.200012q0,-34 -1.699997,-35.799988q-1.800003,-1.700012 -1.300003,-3q0.5,-1.200012 -1.5,-1.200012q-2,0 -2.199997,-9.5q-0.300003,-9.5 0,-11q0.199997,-1.5 2.699997,-2q2.5,-0.5 2.5,-7.5q0,-7 1,-7.200012q1,-0.299988 16,-0.799988l15,-0.5l0.199997,0.299988l0.300003,0.200012l0,2.5q0,2.5 0.300003,23.5l0.199997,21l13.5,-0.200012q13.5,-0.299988 15.5,-0.599976l2,-0.200012l-0.199997,-16.5q-0.300003,-16.5 0,-23.5q0.199997,-7 16,-7q15.699997,0 16.399994,21.5q0.800003,21.5 1.800003,21.700012q1,0.299988 0,0.599976q-1,0.200012 -1,41.200012z" stroke-width="0.5px" stroke="#FEFEFE" fill-rule="evenodd" fill="#000000" id="svg_7"/>
  <path d="m943.5,363q9.5,-0.5 19.5,0q10,0.5 23.799988,9.200012q13.700012,8.799988 14,53.599976q0.200012,44.700012 -11.799988,53.200012q-12,8.5 -32,9q-20,0.5 -33.200012,-8.200012q-13.299988,-8.799988 -14.299988,-27.299988q-1,-18.5 -1.5,-45q-0.5,-26.5 4.799988,-29.700012q5.200012,-3.299988 7.400024,-6.599976q2.299988,-3.200012 3,-2.400024q0.799988,0.700012 5.799988,-2.299988q5,-3 14.5,-3.5zm9,25q6.5,-0.5 11.5,2q5,2.5 5.799988,35.200012q0.700012,32.799988 -3,35q-3.799988,2.299988 -10.799988,2.799988q-7,0.5 -11.200012,-1.799988q-4.299988,-2.200012 -5.299988,-34.700012q-1,-32.5 2.700012,-35.299988q3.799988,-2.700012 10.299988,-3.200012z" stroke-width="0.5px" stroke="#FEFEFE" fill-rule="evenodd" fill="#000000" id="svg_8"/>
  <path d="m599.5,398.5l1,-1.5l0.5,-1.5l0.5,-1.5l7.299988,-22.200012q7.200012,-22.299988 20.200012,-22.299988l13,0l2,0.299988l2,0.200012l-0.200012,1l-0.299988,1l-1.5,8q-1.5,8 -0.5,9q1,1 -0.700012,1q-1.799988,0 -4.799988,8.200012q-3,8.299988 -10.799988,31q-7.700012,22.799988 -8.200012,26.799988q-0.5,4 -0.799988,23l-0.200012,19l-1,0.200012q-1,0.299988 -18,0l-17,-0.200012l-0.200012,-2.5q-0.299988,-2.5 -0.799988,-21q-0.5,-18.5 -9.5,-43.5q-9,-25 -15,-43.5q-6,-18.5 9.299988,-18.5q15.200012,0 17,6q1.700012,6 8.700012,25.5q7,19.5 8,18z" stroke-width="0.5px" stroke="#FEFEFE" fill-rule="evenodd" fill="#000000" id="svg_9"/>
  <path d="m484.799988,379l0.200012,-31l14.799988,0.5q14.700012,0.5 15.200012,32q0.5,31.5 0.799988,50l0.200012,18.5l23,-0.200012q23,-0.299988 28,0l5,0.200012l0.200012,10q0.299988,10 0,12.5l-0.200012,2.5l-8.5,-0.200012q-8.5,-0.299988 -14.5,-0.299988q-6,0 -17.5,-1.5q-11.5,-1.5 -21.5,-0.5q-10,1 -17,-1.299988q-7,-2.200012 -7.799988,-31.200012q-0.700012,-29 -0.400024,-60z" stroke-width="0.5px" stroke="#FEFEFE" fill-rule="evenodd" fill="#000000" id="svg_10"/>
  <path d="m389,350l1,-2.5l15.200012,0.700012q15.299988,0.799988 15.799988,41.799988q0.5,41 0.799988,49.5l0.200012,8.5l19.5,0.200012q19.5,0.299988 28,0.599976l8.5,0.200012l0,11l0,11l-1.5,0.200012q-1.5,0.299988 -4.5,1.299988q-3,1 -11,-0.5q-8,-1.5 -20.5,-1.5q-12.5,0 -20,0q-7.5,0 -10,1q-2.5,1 -10.5,-0.299988q-8,-1.200012 -7.799988,-3.200012q0.299988,-2 -0.700012,-12.5q-1,-10.5 -1.299988,-56.5q-0.200012,-46 -1.200012,-46.200012q-1,-0.299988 0,-2.799988z" stroke-width="0.5px" stroke="#FDFDFD" fill-rule="evenodd" fill="#000000" id="svg_11"/>
  <path d="m832,387q8,-0.5 11.799988,1.799988q3.700012,2.200012 4.200012,34.700012q0.5,32.5 -2.799988,34.700012q-3.200012,2.299988 -10.700012,2.299988q-7.5,0 -11,-2q-3.5,-2 -4.700012,-29.299988q-1.299988,-27.200012 -1,-32.700012q0.200012,-5.5 3.200012,-7.299988q3,-1.700012 11,-2.200012z" stroke-width="0.5px" stroke="#020202" fill-rule="evenodd" fill="#ffffff" id="svg_12"/>
  <path d="m952.5,388q6.5,-0.5 11.5,2q5,2.5 5.799988,35.200012q0.700012,32.799988 -3,35q-3.799988,2.299988 -10.799988,2.799988q-7,0.5 -11.200012,-1.799988q-4.299988,-2.200012 -5.299988,-34.700012q-1,-32.5 2.700012,-35.299988q3.799988,-2.700012 10.299988,-3.200012z" stroke-width="0.5px" stroke="#020202" fill-rule="evenodd" fill="#ffffff" id="svg_13"/>
  <path d="m299.5,378.5q3.5,-2 11.5,-1.5q8,0.5 10.799988,2.200012q2.700012,1.799988 3.400024,34.799988q0.799988,33 -3.700012,35.200012q-4.5,2.299988 -11.5,1.799988q-7,-0.5 -10.200012,-2.200012q-3.299988,-1.799988 -3.599976,-35q-0.200012,-33.299988 3.299988,-35.299988z" stroke-width="0.5px" stroke="#040404" fill-rule="evenodd" fill="#ffffff" id="svg_14"/>
  <path d="m1081.5,382q10.5,-0.5 14.300049,2.200012q3.699951,2.799988 4.199951,35.799988q0.5,33 -2.800049,34.799988q-3.199951,1.700012 -14.199951,2.200012q-11,0.5 -12,-24.200012q-1,-24.799988 0,-25q1,-0.299988 0,-0.599976q-1,-0.200012 -0.5,-12.400024q0.5,-12.299988 11,-12.799988z" stroke-width="0.5px" stroke="#050505" fill-rule="evenodd" fill="#ffffff" id="svg_15"/>
 </g>
</svg>